<svg width="20" height="20" viewBox="0 0 20 20" fill="none" xmlns="http://www.w3.org/2000/svg">
<rect width="20" height="20" rx="4" fill="#232426"/>
<path d="M8.75 5.83331C8.98012 5.83331 9.16667 6.01986 9.16667 6.24998V6.66665H10.8333V6.24998C10.8333 6.01986 11.0199 5.83331 11.25 5.83331C11.4801 5.83331 11.6667 6.01986 11.6667 6.24998V6.66665H12.9167C13.3769 6.66665 13.75 7.03974 13.75 7.49998V12.9166C13.75 13.3769 13.3769 13.75 12.9167 13.75H7.08333C6.6231 13.75 6.25 13.3769 6.25 12.9166V7.49998C6.25 7.03974 6.6231 6.66665 7.08333 6.66665H8.33333V6.24998C8.33333 6.01986 8.51988 5.83331 8.75 5.83331ZM8.33333 7.49998H7.08333V8.74998H12.9167V7.49998H11.6667V7.91665C11.6667 8.14676 11.4801 8.33331 11.25 8.33331C11.0199 8.33331 10.8333 8.14676 10.8333 7.91665V7.49998H9.16667V7.91665C9.16667 8.14676 8.98012 8.33331 8.75 8.33331C8.51988 8.33331 8.33333 8.14676 8.33333 7.91665V7.49998ZM12.9167 9.58331H7.08333V12.9166H12.9167V9.58331Z" fill="white"/>
</svg>
