<svg width="20" height="20" viewBox="0 0 20 20" fill="none" xmlns="http://www.w3.org/2000/svg">
<path d="M20 10C20 15.5225 15.5225 20 10 20C4.47747 20 0 15.5225 0 10C0 4.47747 4.47747 0 10 0C15.5237 0 20 4.47747 20 10Z" fill="#EE2EFF"/>
<path d="M4.93322 10.336L4.97638 10.2682L7.57778 6.19867C7.61578 6.13907 7.70518 6.14525 7.73393 6.20996C8.16853 7.18396 8.54353 8.39527 8.36785 9.14938C8.29285 9.45965 8.08738 9.87987 7.8562 10.2682C7.8264 10.3247 7.79353 10.3802 7.7586 10.4336C7.74216 10.4583 7.71442 10.4727 7.68462 10.4727H5.00925C4.93733 10.4727 4.89522 10.3946 4.93322 10.336Z" fill="white"/>
</svg>
