<svg width="20" height="20" viewBox="0 0 20 20" fill="none" xmlns="http://www.w3.org/2000/svg">
<rect width="20" height="20" rx="4" fill="#232426"/>
<path d="M6.07104 6.00006L7.00455 12.0679C7.01134 12.1179 7.02555 12.1657 7.04604 12.2099C7.1077 12.343 7.22621 12.4445 7.37042 12.4831C7.41448 12.4949 7.46065 12.5008 7.50787 12.5H12.9999C13.2207 12.5 13.4154 12.3552 13.4789 12.1437L14.9788 7.14373C15.0243 6.99234 14.9954 6.8284 14.9011 6.70159C14.8067 6.57479 14.658 6.50006 14.4999 6.50006H7.15972L6.99528 5.43116C6.98912 5.38647 6.97705 5.34366 6.95989 5.30356C6.92874 5.23052 6.88105 5.16725 6.82213 5.11766C6.76747 5.07157 6.70279 5.03698 6.63182 5.01763C6.58716 5.0054 6.54029 4.99927 6.49234 5.00007H5.5C5.22386 5.00007 5 5.22392 5 5.50007C5 5.77621 5.22386 6.00006 5.5 6.00006H6.07104ZM7.92895 11.5L7.31357 7.50005H13.8279L12.6279 11.5H7.92895Z" fill="white"/>
<path d="M8.99997 14C8.99997 14.5523 8.55226 15 7.99998 15C7.4477 15 6.99999 14.5523 6.99999 14C6.99999 13.4477 7.4477 13 7.99998 13C8.55226 13 8.99997 13.4477 8.99997 14Z" fill="white"/>
<path d="M13.4999 14C13.4999 14.5523 13.0522 15 12.4999 15C11.9477 15 11.5 14.5523 11.5 14C11.5 13.4477 11.9477 13 12.4999 13C13.0522 13 13.4999 13.4477 13.4999 14Z" fill="white"/>
</svg>
