<svg width="10" height="11" viewBox="0 0 10 11" fill="none" xmlns="http://www.w3.org/2000/svg">
<path d="M4.16667 2.29886C2.78596 2.29886 1.66667 3.37955 1.66667 4.71265C1.66667 6.04575 2.78596 7.12645 4.16667 7.12645C5.54738 7.12645 6.66667 6.04575 6.66667 4.71265C6.66667 3.37955 5.54738 2.29886 4.16667 2.29886ZM0.833336 4.71265C0.833336 2.93519 2.32572 1.49426 4.16667 1.49426C6.00762 1.49426 7.5 2.93519 7.5 4.71265C7.5 5.45639 7.23872 6.1412 6.79994 6.68619L9.04463 8.85347C9.20735 9.01058 9.20735 9.2653 9.04463 9.42241C8.88191 9.57952 8.61809 9.57952 8.45537 9.42241L6.21069 7.25512C5.64624 7.67877 4.93697 7.93104 4.16667 7.93104C2.32572 7.93104 0.833336 6.49012 0.833336 4.71265Z" fill="white"/>
</svg>
