<svg width="10" height="10" viewBox="0 0 10 10" fill="none" xmlns="http://www.w3.org/2000/svg">
<path d="M2.62208 1.78866C2.7848 1.62595 3.04862 1.62595 3.21134 1.78866L4.878 3.45533C5.04072 3.61805 5.04072 3.88187 4.878 4.04459C4.71528 4.20731 4.45146 4.20731 4.28875 4.04459L3.33337 3.08921V7.91663C3.33337 8.14674 3.14683 8.33329 2.91671 8.33329C2.68659 8.33329 2.50004 8.14674 2.50004 7.91663V3.08921L1.54467 4.04459C1.38195 4.20731 1.11813 4.20731 0.955413 4.04459C0.792694 3.88187 0.792694 3.61805 0.955413 3.45533L2.62208 1.78866ZM6.66671 6.9107V2.08329C6.66671 1.85317 6.85326 1.66663 7.08337 1.66663C7.31349 1.66663 7.50004 1.85317 7.50004 2.08329V6.9107L8.45541 5.95533C8.61813 5.79261 8.88195 5.79261 9.04467 5.95533C9.20739 6.11805 9.20739 6.38187 9.04467 6.54459L7.378 8.21125C7.29986 8.28939 7.19388 8.33329 7.08337 8.33329C6.97287 8.33329 6.86689 8.28939 6.78875 8.21125L5.12208 6.54459C4.95936 6.38187 4.95936 6.11805 5.12208 5.95533C5.2848 5.79261 5.54862 5.79261 5.71134 5.95533L6.66671 6.9107Z" fill="white"/>
</svg>
