<svg width="26" height="27" viewBox="0 0 26 27" fill="none" xmlns="http://www.w3.org/2000/svg">
<g filter="url(#filter0_f_49:561)">
<path d="M13 22.1438C17.9706 22.1438 22 18.2533 22 13.4542C22 8.65502 17.9706 4.76453 13 4.76453C8.02944 4.76453 4 8.65502 4 13.4542C4 18.2533 8.02944 22.1438 13 22.1438Z" fill="#139BD0"/>
</g>
<path d="M13 22.2069C17.9706 22.2069 22 18.3165 22 13.5173C22 8.71813 17.9706 4.82764 13 4.82764C8.02944 4.82764 4 8.71813 4 13.5173C4 18.3165 8.02944 22.2069 13 22.2069Z" fill="#139BD0"/>
<path fill-rule="evenodd" clip-rule="evenodd" d="M13.2948 15.5938C12.9482 15.9198 12.6046 16.2404 12.2642 16.5634C12.1452 16.6766 12.0114 16.7391 11.8406 16.7305C11.724 16.7245 11.6588 16.675 11.623 16.5682C11.3622 15.7868 11.0976 15.0072 10.8382 14.2249C10.813 14.149 10.7758 14.1122 10.6962 14.0884C10.0818 13.9073 9.46862 13.7219 8.85642 13.534C8.76222 13.505 8.66722 13.4672 8.58582 13.4137C8.46002 13.3314 8.44162 13.1972 8.55442 13.1007C8.65862 13.0117 8.78302 12.934 8.91222 12.8846C9.66322 12.5973 10.4182 12.3192 11.172 12.0386C13.085 11.3255 14.998 10.6129 16.9112 9.89981C17.275 9.76405 17.5546 9.95523 17.5168 10.3351C17.4926 10.578 17.4274 10.817 17.3748 11.0569C16.9594 12.9506 16.5436 14.8446 16.126 16.738C16.0268 17.1875 15.6998 17.3049 15.3166 17.0321C14.6748 16.5754 14.0336 16.1172 13.3922 15.6597C13.3616 15.6383 13.3298 15.6176 13.2948 15.5938ZM11.8542 16.1689C11.8614 16.167 11.8686 16.165 11.8758 16.1633C11.8798 16.1455 11.8856 16.1282 11.8872 16.1106C11.9284 15.6813 11.972 15.2522 12.0078 14.8222C12.0158 14.7264 12.0498 14.6585 12.1244 14.594C12.716 14.0832 13.304 13.5692 13.8932 13.0563C14.5454 12.4884 15.1978 11.921 15.8476 11.3508C15.8878 11.3156 15.9046 11.2558 15.9322 11.2071C15.871 11.2007 15.8054 11.177 15.7498 11.1909C15.674 11.2098 15.6022 11.2523 15.5346 11.2934C14.0952 12.1688 12.657 13.0457 11.2166 13.9193C11.1352 13.9687 11.12 14.0106 11.151 14.0969C11.2572 14.3914 11.3538 14.6886 11.454 14.9852C11.5874 15.3799 11.7208 15.7744 11.8542 16.1689Z" fill="white"/>
<defs>
<filter id="filter0_f_49:561" x="0" y="0.764526" width="26" height="25.3793" filterUnits="userSpaceOnUse" color-interpolation-filters="sRGB">
<feFlood flood-opacity="0" result="BackgroundImageFix"/>
<feBlend mode="normal" in="SourceGraphic" in2="BackgroundImageFix" result="shape"/>
<feGaussianBlur stdDeviation="2" result="effect1_foregroundBlur_49:561"/>
</filter>
</defs>
</svg>
