<svg width="20" height="20" viewBox="0 0 20 20" fill="none" xmlns="http://www.w3.org/2000/svg">
<rect width="20" height="20" rx="4" fill="#232426"/>
<path d="M7.77778 6C7.34822 6 7 6.34822 7 6.77778V12.2222C7 12.6518 7.34822 13 7.77778 13H10.4996C10.4999 13 10.4994 13 10.4996 13H13.2222C13.6518 13 14 12.6518 14 12.2222V9.50038C14 9.50013 14 9.50064 14 9.50038V6.77778C14 6.34822 13.6518 6 13.2222 6H7.77778ZM13.2222 9.33892L10.3389 12.2222H7.77778V6.77778H13.2222V9.33892ZM11.4389 12.2222L13.2222 10.4389V12.2222H11.4389Z" fill="white"/>
</svg>
