<svg width="20" height="20" viewBox="0 0 20 20" fill="none" xmlns="http://www.w3.org/2000/svg">
<rect width="20" height="20" rx="4" fill="#232426"/>
<path d="M10 6.66669C10.2301 6.66669 10.4167 6.85324 10.4167 7.08335V12.9167C10.4167 13.1468 10.2301 13.3334 10 13.3334C9.76988 13.3334 9.58333 13.1468 9.58333 12.9167V7.08335C9.58333 6.85324 9.76988 6.66669 10 6.66669ZM12.0833 8.33335C12.3135 8.33335 12.5 8.5199 12.5 8.75002V12.9167C12.5 13.1468 12.3135 13.3334 12.0833 13.3334C11.8532 13.3334 11.6667 13.1468 11.6667 12.9167V8.75002C11.6667 8.5199 11.8532 8.33335 12.0833 8.33335ZM7.91667 10C8.14679 10 8.33333 10.1866 8.33333 10.4167V12.9167C8.33333 13.1468 8.14679 13.3334 7.91667 13.3334C7.68655 13.3334 7.5 13.1468 7.5 12.9167V10.4167C7.5 10.1866 7.68655 10 7.91667 10Z" fill="white"/>
</svg>
