<svg width="20" height="21" viewBox="0 0 20 21" fill="none" xmlns="http://www.w3.org/2000/svg">
<path d="M20 10.5172C20 5.18483 15.5228 0.862061 10 0.862061C4.47715 0.862061 0 5.18483 0 10.5172C0 15.8496 4.47715 20.1724 10 20.1724C15.5228 20.1724 20 15.8496 20 10.5172Z" fill="#55ACEE"/>
<path d="M12.394 5.49463C10.9752 5.52934 9.83701 6.6506 9.83701 8.02911C9.83701 8.22756 9.85906 8.42156 9.90401 8.60746C7.72138 8.50159 5.78629 7.49219 4.49101 5.95808C4.26495 6.33239 4.13501 6.7684 4.13501 7.23353C4.13501 8.1131 4.59933 8.88859 5.30401 9.34318C4.87372 9.32988 4.46816 9.21544 4.11401 9.02553C4.11381 9.03606 4.11401 9.04757 4.11401 9.05835C4.11401 10.2866 5.01952 11.3103 6.22101 11.5436C6.00067 11.6013 5.76858 11.6324 5.52901 11.6324C5.35959 11.6324 5.19532 11.6169 5.03501 11.587C5.36941 12.5943 6.33801 13.3278 7.48701 13.3481C6.58823 14.0283 5.45759 14.4334 4.22701 14.4334C4.01524 14.4334 3.80554 14.4222 3.60001 14.3986C4.76251 15.1184 6.14212 15.5379 7.62501 15.5379C12.4556 15.5379 15.097 11.6743 15.097 8.3236C15.097 8.21371 15.0949 8.10323 15.09 7.99435C15.6029 7.63761 16.0482 7.19074 16.4 6.68222C15.9294 6.88417 15.4234 7.02098 14.892 7.08194C15.4345 6.76834 15.8508 6.27161 16.047 5.67904C15.5395 5.96981 14.9774 6.18114 14.379 6.29504C13.9001 5.80232 13.2174 5.49463 12.462 5.49463C12.4393 5.49463 12.4165 5.49408 12.394 5.49463V5.49463Z" fill="white"/>
</svg>
