<svg width="20" height="20" viewBox="0 0 20 20" fill="none" xmlns="http://www.w3.org/2000/svg">
<rect width="20" height="20" rx="4" fill="#232426"/>
<path d="M9.16665 6.66665C8.24617 6.66665 7.49998 7.41284 7.49998 8.33331C7.49998 9.25379 8.24617 9.99998 9.16665 9.99998C10.0871 9.99998 10.8333 9.25379 10.8333 8.33331C10.8333 7.41284 10.0871 6.66665 9.16665 6.66665ZM6.66665 8.33331C6.66665 6.9526 7.78593 5.83331 9.16665 5.83331C10.5474 5.83331 11.6666 6.9526 11.6666 8.33331C11.6666 9.71403 10.5474 10.8333 9.16665 10.8333C7.78593 10.8333 6.66665 9.71403 6.66665 8.33331ZM12.0118 6.56555C12.1745 6.40283 12.4384 6.40283 12.6011 6.56555C13.5774 7.54186 13.5774 9.12477 12.6011 10.1011C12.4384 10.2638 12.1745 10.2638 12.0118 10.1011C11.8491 9.93836 11.8491 9.67454 12.0118 9.51182C12.6627 8.86095 12.6627 7.80568 12.0118 7.1548C11.8491 6.99208 11.8491 6.72826 12.0118 6.56555ZM12.3041 11.9823C12.3599 11.759 12.5861 11.6233 12.8094 11.6791C13.3627 11.8174 13.7129 12.1712 13.9143 12.5741C14.1092 12.9639 14.1666 13.3988 14.1666 13.75C14.1666 13.9801 13.9801 14.1666 13.75 14.1666C13.5199 14.1666 13.3333 13.9801 13.3333 13.75C13.3333 13.4762 13.2866 13.1819 13.169 12.9467C13.0579 12.7246 12.8873 12.5575 12.6073 12.4875C12.384 12.4317 12.2483 12.2055 12.3041 11.9823ZM7.70831 12.5C7.18354 12.5 6.66665 13.0056 6.66665 13.75C6.66665 13.9801 6.4801 14.1666 6.24998 14.1666C6.01986 14.1666 5.83331 13.9801 5.83331 13.75C5.83331 12.6534 6.62226 11.6666 7.70831 11.6666H10.625C11.711 11.6666 12.5 12.6534 12.5 13.75C12.5 13.9801 12.3134 14.1666 12.0833 14.1666C11.8532 14.1666 11.6666 13.9801 11.6666 13.75C11.6666 13.0056 11.1498 12.5 10.625 12.5H7.70831Z" fill="white"/>
</svg>
